<svg width="96" height="96" viewBox="0 0 96 96" fill="none" xmlns="http://www.w3.org/2000/svg">
<path d="M46.1407 51.1983C39.443 37.6169 22.1407 13.1332 6.51281 23.8495C-9.11509 34.5658 22.6234 62.5117 28.7629 64.7442C34.9024 66.9768 38.1843 60.9269 31.6291 54.5472C23.1815 46.3256 12.6524 79.1053 24.3733 84.6867C33.75 89.1518 48.2978 65.3024 48.9314 60.6867C49.565 56.071 46.1407 51.1983 46.1407 51.1983Z" stroke="black" stroke-width="3"/>
<path d="M49.7528 48.9658C56.4505 35.3844 73.7528 10.9007 89.3807 21.6169C105.009 32.3332 73.2702 60.2791 67.1307 62.5117C60.9911 64.7442 57.7093 58.6943 64.2645 52.3146C72.712 44.0931 83.2412 76.8727 71.5203 82.4541C62.1435 86.9193 47.5958 63.0698 46.9621 58.4541C46.3285 53.8385 49.7528 48.9658 49.7528 48.9658Z" stroke="black" stroke-width="3"/>
</svg>
