<svg width="62" height="62" viewBox="0 0 62 62" fill="none" xmlns="http://www.w3.org/2000/svg">
<g clip-path="url(#clip0)">
<path d="M54.0811 15.0631L39.5502 0.532207C39.211 0.192902 38.7481 0 38.2656 0H12.8359C9.83124 0 7.38672 2.44452 7.38672 5.44922V56.5508C7.38672 59.5555 9.83124 62 12.8359 62H49.1641C52.1688 62 54.6133 59.5555 54.6133 56.5508V16.3477C54.6133 15.8524 54.4054 15.3873 54.0811 15.0631ZM40.082 6.20157L48.4117 14.5312H41.8984C40.8969 14.5312 40.082 13.7164 40.082 12.7148V6.20157ZM49.1641 58.3672H12.8359C11.8344 58.3672 11.0195 57.5523 11.0195 56.5508V5.44922C11.0195 4.44765 11.8344 3.63281 12.8359 3.63281H36.4492V12.7148C36.4492 15.7195 38.8937 18.1641 41.8984 18.1641H50.9805V56.5508C50.9805 57.5523 50.1656 58.3672 49.1641 58.3672Z" fill="black"/>
<path d="M41.8984 25.6719H20.1016C19.0984 25.6719 18.2852 26.4851 18.2852 27.4883C18.2852 28.4914 19.0984 29.3047 20.1016 29.3047H41.8984C42.9016 29.3047 43.7148 28.4914 43.7148 27.4883C43.7148 26.4851 42.9016 25.6719 41.8984 25.6719Z" fill="#DDD0A4"/>
<path d="M41.8984 32.9375H20.1016C19.0984 32.9375 18.2852 33.7508 18.2852 34.7539C18.2852 35.757 19.0984 36.5703 20.1016 36.5703H41.8984C42.9016 36.5703 43.7148 35.757 43.7148 34.7539C43.7148 33.7508 42.9016 32.9375 41.8984 32.9375Z" fill="#DDD0A4"/>
<path d="M41.8984 40.2031H20.1016C19.0984 40.2031 18.2852 41.0164 18.2852 42.0195C18.2852 43.0227 19.0984 43.8359 20.1016 43.8359H41.8984C42.9016 43.8359 43.7148 43.0227 43.7148 42.0195C43.7148 41.0164 42.9016 40.2031 41.8984 40.2031Z" fill="#DDD0A4"/>
<path d="M34.6328 47.4688H20.1016C19.0984 47.4688 18.2852 48.282 18.2852 49.2852C18.2852 50.2883 19.0984 51.1016 20.1016 51.1016H34.6328C35.636 51.1016 36.4492 50.2883 36.4492 49.2852C36.4492 48.282 35.636 47.4688 34.6328 47.4688Z" fill="#DDD0A4"/>
</g>
<defs>
<clipPath id="clip0">
<rect width="62" height="62" fill="white"/>
</clipPath>
</defs>
</svg>
