<svg width="58" height="58" viewBox="0 0 58 58" fill="none" xmlns="http://www.w3.org/2000/svg">
<g clip-path="url(#clip0)">
<path d="M45.8383 35.9288C44.6509 34.6925 43.2187 34.0314 41.7008 34.0314C40.1951 34.0314 38.7506 34.6802 37.5142 35.9166L33.646 39.7726C33.3277 39.6012 33.0095 39.4421 32.7034 39.2829C32.2627 39.0626 31.8465 38.8545 31.4915 38.6342C27.8681 36.3328 24.5752 33.3337 21.4169 29.4532C19.8868 27.5191 18.8585 25.891 18.1118 24.2384C19.1156 23.3203 20.0459 22.3655 20.9518 21.4474C21.2945 21.1046 21.6373 20.7496 21.98 20.4069C24.5507 17.8362 24.5507 14.5066 21.98 11.9359L18.6382 8.59401C18.2587 8.21453 17.867 7.82281 17.4997 7.43109C16.7653 6.67213 15.9941 5.88868 15.1984 5.15421C14.011 3.97904 12.591 3.35474 11.0975 3.35474C9.60409 3.35474 8.15962 3.97904 6.93549 5.15421C6.92325 5.16645 6.92325 5.16645 6.91101 5.17869L2.74897 9.37746C1.18208 10.9443 0.288468 12.854 0.0926074 15.0697C-0.201184 18.6441 0.851568 21.9737 1.65949 24.1527C3.64258 29.5021 6.60498 34.4599 11.0241 39.7726C16.3858 46.1748 22.8369 51.2304 30.2062 54.7927C33.0217 56.127 36.7798 57.7061 40.9785 57.9754C41.2356 57.9876 41.5049 57.9999 41.7497 57.9999C44.5775 57.9999 46.9523 56.9839 48.813 54.9641C48.8252 54.9396 48.8497 54.9273 48.8619 54.9028C49.4985 54.1316 50.233 53.4339 51.0042 52.6872C51.5305 52.1853 52.0691 51.6589 52.5955 51.108C53.8074 49.8472 54.444 48.3782 54.444 46.8726C54.444 45.3546 53.7952 43.8979 52.5588 42.6738L45.8383 35.9288ZM50.2207 48.8189C50.2085 48.8189 50.2085 48.8312 50.2207 48.8189C49.7433 49.333 49.2537 49.7982 48.7273 50.3124C47.9316 51.0713 47.1237 51.867 46.3647 52.7606C45.1283 54.0827 43.6716 54.707 41.762 54.707C41.5784 54.707 41.3825 54.707 41.1989 54.6947C37.5632 54.4622 34.1846 53.0422 31.6507 51.8303C24.7221 48.4762 18.6382 43.7143 13.5825 37.6793C9.40823 32.6482 6.61722 27.9965 4.76878 23.002C3.63034 19.9539 3.21414 17.5791 3.39776 15.339C3.52017 13.9067 4.07103 12.7193 5.08706 11.7033L9.26134 7.52902C9.86116 6.96592 10.4977 6.65989 11.122 6.65989C11.8932 6.65989 12.5175 7.12506 12.9092 7.51678C12.9215 7.52902 12.9337 7.54126 12.946 7.5535C13.6927 8.25126 14.4027 8.97349 15.1494 9.74469C15.5289 10.1364 15.9206 10.5281 16.3123 10.9321L19.6542 14.274C20.9518 15.5716 20.9518 16.7712 19.6542 18.0688C19.2992 18.4238 18.9564 18.7788 18.6014 19.1215C17.5732 20.1743 16.5939 21.1536 15.5289 22.1084C15.5044 22.1329 15.4799 22.1451 15.4677 22.1696C14.4149 23.2224 14.6108 24.2506 14.8311 24.9484C14.8434 24.9851 14.8556 25.0218 14.8679 25.0586C15.737 27.1641 16.9611 29.1472 18.8218 31.5097L18.834 31.522C22.2126 35.684 25.7748 38.9279 29.7043 41.4129C30.2062 41.7312 30.7203 41.9883 31.21 42.2331C31.6507 42.4534 32.0669 42.6615 32.4219 42.8819C32.4708 42.9064 32.5198 42.9431 32.5688 42.9676C32.985 43.1757 33.3767 43.2736 33.7807 43.2736C34.7967 43.2736 35.4332 42.6371 35.6413 42.429L39.8279 38.2424C40.2441 37.8262 40.9051 37.3243 41.6763 37.3243C42.4352 37.3243 43.0596 37.8017 43.439 38.218C43.4513 38.2302 43.4513 38.2302 43.4635 38.2424L50.2085 44.9874C51.4693 46.236 51.4693 47.5213 50.2207 48.8189Z" fill="black"/>
<path d="M31.3447 13.7966C34.5519 14.3352 37.4653 15.8532 39.7912 18.179C42.117 20.5048 43.6227 23.4183 44.1735 26.6255C44.3082 27.4334 45.0059 27.9965 45.8016 27.9965C45.8996 27.9965 45.9852 27.9843 46.0832 27.972C46.989 27.8251 47.5889 26.9683 47.442 26.0624C46.7809 22.1819 44.9447 18.6442 42.1415 15.8409C39.3382 13.0377 35.8005 11.2015 31.92 10.5404C31.0141 10.3935 30.1695 10.9934 30.0104 11.887C29.8512 12.7806 30.4388 13.6497 31.3447 13.7966Z" fill="#DDD0A4"/>
<path d="M57.9327 25.585C56.8432 19.1951 53.8319 13.3804 49.2047 8.75324C44.5775 4.12603 38.7628 1.11467 32.3729 0.0251944C31.4793 -0.133942 30.6346 0.478122 30.4755 1.37174C30.3286 2.27759 30.9284 3.12224 31.8343 3.28138C37.5387 4.24844 42.7413 6.95377 46.8788 11.0791C51.0164 15.2166 53.7095 20.4192 54.6765 26.1236C54.8112 26.9316 55.5089 27.4947 56.3046 27.4947C56.4026 27.4947 56.4882 27.4824 56.5862 27.4702C57.4798 27.3355 58.0919 26.4786 57.9327 25.585Z" fill="#DDD0A4"/>
</g>
<defs>
<clipPath id="clip0">
<rect width="58" height="58" fill="white"/>
</clipPath>
</defs>
</svg>
