<svg width="783" height="236" viewBox="0 0 783 236" fill="none" xmlns="http://www.w3.org/2000/svg">
<path d="M18 20C18 8.9543 26.9543 0 38 0H163C174.046 0 183 8.95431 183 20V50H18V20Z" fill="#DDD0A4"/>
<path d="M49.1074 17.1436C47.9544 17.1436 47.0703 16.7767 46.4551 16.043C45.8444 15.3092 45.5391 14.2337 45.5391 12.8164C45.5391 11.472 45.6826 10.3828 45.9697 9.54883C46.2614 8.71029 46.6943 8.09505 47.2686 7.70312C47.8473 7.3112 48.5947 7.09928 49.5107 7.06738L50.2422 7.04688C50.6523 7.02865 51.0374 6.98763 51.3975 6.92383C51.7575 6.86003 52.0059 6.79167 52.1426 6.71875V8.0791C52.0605 8.15658 51.8486 8.23177 51.5068 8.30469C51.1696 8.37305 50.7822 8.41634 50.3447 8.43457L49.6406 8.45508C49.1712 8.46875 48.7747 8.53483 48.4512 8.65332C48.1322 8.76725 47.8656 8.94727 47.6514 9.19336C47.4417 9.4349 47.2777 9.72656 47.1592 10.0684C47.0407 10.4056 46.9495 10.8294 46.8857 11.3398H46.9404C47.1683 10.9023 47.4919 10.5697 47.9111 10.3418C48.3304 10.1094 48.8271 9.99316 49.4014 9.99316C50.3812 9.99316 51.1628 10.3076 51.7461 10.9365C52.3294 11.5609 52.6211 12.404 52.6211 13.4658C52.6211 14.6051 52.3066 15.5029 51.6777 16.1592C51.0534 16.8154 50.1966 17.1436 49.1074 17.1436ZM49.0869 15.7627C49.652 15.7627 50.0918 15.5667 50.4062 15.1748C50.7207 14.7783 50.8779 14.2201 50.8779 13.5C50.8779 12.8073 50.7207 12.2718 50.4062 11.8936C50.0918 11.5107 49.652 11.3193 49.0869 11.3193C48.5173 11.3193 48.0729 11.5107 47.7539 11.8936C47.4395 12.2718 47.2822 12.8073 47.2822 13.5C47.2822 14.2246 47.4395 14.7829 47.7539 15.1748C48.0684 15.5667 48.5127 15.7627 49.0869 15.7627ZM56.9824 10.9229C56.5085 10.9229 56.112 11.0869 55.793 11.415C55.4785 11.7386 55.3031 12.1556 55.2666 12.666H58.6504C58.6322 12.151 58.4704 11.7318 58.165 11.4082C57.8597 11.0846 57.4655 10.9229 56.9824 10.9229ZM58.6572 14.833H60.25C60.1406 15.5212 59.792 16.0794 59.2041 16.5078C58.6162 16.9316 57.8962 17.1436 57.0439 17.1436C55.9593 17.1436 55.1071 16.8109 54.4873 16.1455C53.8675 15.4756 53.5576 14.5618 53.5576 13.4043C53.5576 12.2559 53.8652 11.3353 54.4805 10.6426C55.1003 9.94987 55.932 9.60352 56.9756 9.60352C58.001 9.60352 58.8145 9.93392 59.416 10.5947C60.0176 11.251 60.3184 12.1305 60.3184 13.2334V13.7871H55.2529V13.8896C55.2529 14.473 55.417 14.9424 55.7451 15.2979C56.0778 15.6533 56.5221 15.8311 57.0781 15.8311C57.4701 15.8311 57.8073 15.7422 58.0898 15.5645C58.377 15.3822 58.5661 15.1383 58.6572 14.833ZM64.29 17.1436C63.3968 17.1436 62.6699 16.9385 62.1094 16.5283C61.5534 16.1182 61.2412 15.5576 61.1729 14.8467H62.8271C62.9001 15.1566 63.0618 15.3936 63.3125 15.5576C63.5677 15.7217 63.8936 15.8037 64.29 15.8037C64.7184 15.8037 65.0534 15.7148 65.2949 15.5371C65.5365 15.3548 65.6572 15.1133 65.6572 14.8125C65.6572 14.1745 65.2015 13.8555 64.29 13.8555H63.2578V12.6797H64.2559C65.0397 12.6797 65.4316 12.388 65.4316 11.8047C65.4316 11.5358 65.3337 11.3216 65.1377 11.1621C64.9417 11.0026 64.6523 10.9229 64.2695 10.9229C63.8958 10.9229 63.5905 11.0026 63.3535 11.1621C63.1211 11.3171 62.9821 11.5335 62.9365 11.8115H61.3232C61.3962 11.1279 61.6924 10.5902 62.2119 10.1982C62.736 9.80176 63.4219 9.60352 64.2695 9.60352C65.1719 9.60352 65.8669 9.78581 66.3545 10.1504C66.8467 10.5104 67.0928 11.0049 67.0928 11.6338C67.0928 12.0029 66.9902 12.3265 66.7852 12.6045C66.5801 12.8825 66.3044 13.0671 65.958 13.1582V13.2129C66.4092 13.3223 66.7533 13.5182 66.9902 13.8008C67.2272 14.0833 67.3457 14.4297 67.3457 14.8398C67.3457 15.5417 67.07 16.1022 66.5186 16.5215C65.9671 16.9362 65.2243 17.1436 64.29 17.1436ZM77.1758 16.1387C76.5423 16.8086 75.6901 17.1436 74.6191 17.1436C73.5482 17.1436 72.696 16.8086 72.0625 16.1387C71.429 15.4642 71.1123 14.5436 71.1123 13.377C71.1123 12.2148 71.4313 11.2965 72.0693 10.6221C72.7074 9.94303 73.5573 9.60352 74.6191 9.60352C75.6855 9.60352 76.5355 9.94303 77.1689 10.6221C77.807 11.2965 78.126 12.2148 78.126 13.377C78.126 14.5436 77.8092 15.4642 77.1758 16.1387ZM73.3203 15.1611C73.6393 15.585 74.0723 15.7969 74.6191 15.7969C75.166 15.7969 75.599 15.585 75.918 15.1611C76.237 14.7373 76.3965 14.1426 76.3965 13.377C76.3965 12.6159 76.237 12.0234 75.918 11.5996C75.599 11.1712 75.166 10.957 74.6191 10.957C74.0768 10.957 73.6439 11.1712 73.3203 11.5996C73.0013 12.0234 72.8418 12.6159 72.8418 13.377C72.8418 14.1426 73.0013 14.7373 73.3203 15.1611ZM84.2646 11.0664H81.0449V17H79.3496V9.75391H84.2646V11.0664ZM89.4463 9.63086C90.3669 9.63086 91.0983 9.96582 91.6406 10.6357C92.1829 11.3057 92.4541 12.2194 92.4541 13.377C92.4541 14.5299 92.1852 15.4414 91.6475 16.1113C91.1097 16.7812 90.3851 17.1162 89.4736 17.1162C88.9541 17.1162 88.4961 17 88.0996 16.7676C87.7031 16.5306 87.4046 16.207 87.2041 15.7969H87.1699V19.3857H85.4678V9.75391H87.1289V11.0049H87.1631C87.3727 10.5765 87.6758 10.2415 88.0723 10C88.4688 9.75391 88.9268 9.63086 89.4463 9.63086ZM88.9268 15.7217C89.4782 15.7217 89.9134 15.512 90.2324 15.0928C90.5514 14.6689 90.7109 14.097 90.7109 13.377C90.7109 12.6615 90.5492 12.0918 90.2256 11.668C89.9066 11.2441 89.4736 11.0322 88.9268 11.0322C88.3981 11.0322 87.972 11.2464 87.6484 11.6748C87.3249 12.1032 87.1608 12.6706 87.1562 13.377C87.1608 14.0879 87.3249 14.6576 87.6484 15.0859C87.972 15.5098 88.3981 15.7217 88.9268 15.7217ZM96.3438 15.8311C96.8314 15.8311 97.2415 15.6875 97.5742 15.4004C97.9115 15.1087 98.0801 14.7464 98.0801 14.3135V13.7598L96.4053 13.8623C95.9951 13.8896 95.6761 13.9922 95.4482 14.1699C95.2249 14.3431 95.1133 14.5732 95.1133 14.8604C95.1133 15.1566 95.2249 15.3936 95.4482 15.5713C95.6761 15.7445 95.9746 15.8311 96.3438 15.8311ZM95.8311 17.1162C95.1247 17.1162 94.5436 16.9134 94.0879 16.5078C93.6367 16.1022 93.4111 15.5758 93.4111 14.9287C93.4111 14.2861 93.6481 13.778 94.1221 13.4043C94.6006 13.0306 95.2819 12.8164 96.166 12.7617L98.0801 12.6523V12.1328C98.0801 11.7546 97.9593 11.4606 97.7178 11.251C97.4808 11.0413 97.1504 10.9365 96.7266 10.9365C96.3301 10.9365 96.0065 11.0254 95.7559 11.2031C95.5052 11.3809 95.3525 11.6224 95.2979 11.9277H93.7188C93.7552 11.2396 94.0492 10.6813 94.6006 10.2529C95.1566 9.81999 95.888 9.60352 96.7949 9.60352C97.6927 9.60352 98.4105 9.82227 98.9482 10.2598C99.4906 10.6973 99.7617 11.2806 99.7617 12.0098V17H98.1211V15.8447H98.0869C97.8818 16.2321 97.5719 16.542 97.1572 16.7744C96.7425 17.0023 96.3005 17.1162 95.8311 17.1162ZM106.01 17V13.9238H102.947V17H101.252V9.75391H102.947V12.6113H106.01V9.75391H107.705V17H106.01ZM110.904 17H109.236V9.75391H110.904V14.5938H110.959L114.11 9.75391H115.778V17H114.11V12.126H114.056L110.904 17ZM123.407 17H121.712V13.9443H121.63C121.188 14.3864 120.579 14.6074 119.805 14.6074C118.971 14.6074 118.319 14.3704 117.85 13.8965C117.385 13.418 117.152 12.7731 117.152 11.9619V9.75391H118.841V11.7705C118.841 12.2126 118.957 12.5589 119.189 12.8096C119.426 13.0602 119.759 13.1855 120.188 13.1855C120.867 13.1855 121.375 12.9759 121.712 12.5566V9.75391H123.407V17ZM128.062 10.9229C127.589 10.9229 127.192 11.0869 126.873 11.415C126.559 11.7386 126.383 12.1556 126.347 12.666H129.73C129.712 12.151 129.55 11.7318 129.245 11.4082C128.94 11.0846 128.546 10.9229 128.062 10.9229ZM129.737 14.833H131.33C131.221 15.5212 130.872 16.0794 130.284 16.5078C129.696 16.9316 128.976 17.1436 128.124 17.1436C127.039 17.1436 126.187 16.8109 125.567 16.1455C124.948 15.4756 124.638 14.5618 124.638 13.4043C124.638 12.2559 124.945 11.3353 125.561 10.6426C126.18 9.94987 127.012 9.60352 128.056 9.60352C129.081 9.60352 129.895 9.93392 130.496 10.5947C131.098 11.251 131.398 12.1305 131.398 13.2334V13.7871H126.333V13.8896C126.333 14.473 126.497 14.9424 126.825 15.2979C127.158 15.6533 127.602 15.8311 128.158 15.8311C128.55 15.8311 128.887 15.7422 129.17 15.5645C129.457 15.3822 129.646 15.1383 129.737 14.833ZM137.373 17V13.9238H134.311V17H132.615V9.75391H134.311V12.6113H137.373V9.75391H139.068V17H137.373ZM142.268 17H140.6V9.75391H142.268V14.5938H142.322L145.474 9.75391H147.142V17H145.474V12.126H145.419L142.268 17ZM150.334 17H148.666V9.75391H150.334V14.5938H150.389L153.54 9.75391H155.208V17H153.54V12.126H153.485L150.334 17ZM149.691 6.52051H150.785C150.79 6.90788 150.904 7.22461 151.127 7.4707C151.355 7.7168 151.653 7.83984 152.022 7.83984C152.392 7.83984 152.688 7.7168 152.911 7.4707C153.139 7.22461 153.255 6.90788 153.26 6.52051H154.354C154.354 7.18132 154.139 7.71452 153.711 8.12012C153.283 8.52116 152.72 8.72168 152.022 8.72168C151.325 8.72168 150.762 8.52116 150.334 8.12012C149.906 7.71452 149.691 7.18132 149.691 6.52051Z" fill="white"/>
<path d="M218 20C218 8.9543 226.954 0 238 0H363C374.046 0 383 8.95431 383 20V50H218V20Z" fill="#DDD0A4"/>
<path d="M286.727 10.0615C286.727 9.15007 287.055 8.40267 287.711 7.81934C288.367 7.23145 289.206 6.9375 290.227 6.9375C291.206 6.9375 292.013 7.2041 292.646 7.7373C293.285 8.27051 293.604 8.93815 293.604 9.74023C293.604 10.2917 293.449 10.8135 293.139 11.3057C292.833 11.7933 292.325 12.3949 291.614 13.1104L289.174 15.5234V15.5576H293.754V17H286.822V15.8105L290.452 12.2012C291.013 11.627 291.391 11.1781 291.587 10.8545C291.783 10.5309 291.881 10.1846 291.881 9.81543C291.881 9.40527 291.717 9.05892 291.389 8.77637C291.065 8.49382 290.66 8.35254 290.172 8.35254C289.657 8.35254 289.229 8.51432 288.887 8.83789C288.549 9.16146 288.381 9.56706 288.381 10.0547V10.082H286.727V10.0615ZM299.544 17V15.1338H294.622V13.6162C295.433 12.085 296.798 9.9248 298.717 7.13574H301.226V13.6914H302.552V15.1338H301.226V17H299.544ZM296.222 13.6846V13.7324H299.571V8.44141H299.544C298.71 9.64909 298.042 10.6471 297.541 11.4355C297.04 12.224 296.6 12.9736 296.222 13.6846ZM304.521 19.1123H302.976L306.476 7.13574H308.021L304.521 19.1123ZM309.285 17L313.612 8.6123V8.57812H308.485V7.13574H315.349V8.60547L311.131 17H309.285Z" fill="white"/>
<path d="M618 20C618 8.9543 626.954 0 638 0H763C774.046 0 783 8.95431 783 20V50H618V20Z" fill="#DDD0A4"/>
<path d="M672.836 15.6875V11.0596H670.471L670.286 13.623C670.227 14.5208 670.042 15.1908 669.732 15.6328V15.6875H672.836ZM668.933 18.8936H667.374V15.6875H667.948C668.413 15.4141 668.687 14.6963 668.769 13.5342L669.021 9.75391H674.531V15.6875H675.632V18.8936H674.073V17H668.933V18.8936ZM682.331 16.1387C681.698 16.8086 680.845 17.1436 679.774 17.1436C678.703 17.1436 677.851 16.8086 677.218 16.1387C676.584 15.4642 676.268 14.5436 676.268 13.377C676.268 12.2148 676.587 11.2965 677.225 10.6221C677.863 9.94303 678.713 9.60352 679.774 9.60352C680.841 9.60352 681.691 9.94303 682.324 10.6221C682.962 11.2965 683.281 12.2148 683.281 13.377C683.281 14.5436 682.965 15.4642 682.331 16.1387ZM678.476 15.1611C678.795 15.585 679.228 15.7969 679.774 15.7969C680.321 15.7969 680.754 15.585 681.073 15.1611C681.392 14.7373 681.552 14.1426 681.552 13.377C681.552 12.6159 681.392 12.0234 681.073 11.5996C680.754 11.1712 680.321 10.957 679.774 10.957C679.232 10.957 678.799 11.1712 678.476 11.5996C678.157 12.0234 677.997 12.6159 677.997 13.377C677.997 14.1426 678.157 14.7373 678.476 15.1611ZM689.769 17V8.81738H689.728L687.178 10.6084V8.94727L689.755 7.13574H691.498V17H689.769ZM697.534 17.1982C696.331 17.1982 695.385 16.7402 694.697 15.8242C694.014 14.9036 693.672 13.6481 693.672 12.0576C693.672 10.4762 694.016 9.22754 694.704 8.31152C695.392 7.39551 696.336 6.9375 697.534 6.9375C698.733 6.9375 699.674 7.39551 700.357 8.31152C701.041 9.22298 701.383 10.4694 701.383 12.0508C701.383 13.6367 701.041 14.8923 700.357 15.8174C699.674 16.738 698.733 17.1982 697.534 17.1982ZM697.534 15.7559C698.186 15.7559 698.692 15.43 699.052 14.7783C699.416 14.1266 699.599 13.2197 699.599 12.0576C699.599 10.9046 699.416 10.0046 699.052 9.35742C698.687 8.70573 698.181 8.37988 697.534 8.37988C696.887 8.37988 696.377 8.70573 696.003 9.35742C695.634 10.0091 695.449 10.9069 695.449 12.0508C695.449 13.2129 695.632 14.1221 695.996 14.7783C696.365 15.43 696.878 15.7559 697.534 15.7559ZM707.152 17H705.532V9.75391H707.699L709.839 14.8125H709.894L712.033 9.75391H714.166V17H712.546V12.0439H712.491L710.447 16.665H709.244L707.2 12.0439H707.152V17ZM717.358 17H715.69V9.75391H717.358V14.5938H717.413L720.564 9.75391H722.232V17H720.564V12.126H720.51L717.358 17ZM728.515 17V13.9238H725.452V17H723.757V9.75391H725.452V12.6113H728.515V9.75391H730.21V17H728.515ZM732.869 17.0752C732.591 17.0752 732.356 16.9818 732.165 16.7949C731.978 16.6035 731.885 16.3688 731.885 16.0908C731.885 15.8174 731.978 15.585 732.165 15.3936C732.356 15.2021 732.591 15.1064 732.869 15.1064C733.143 15.1064 733.373 15.2021 733.56 15.3936C733.751 15.585 733.847 15.8174 733.847 16.0908C733.847 16.3688 733.751 16.6035 733.56 16.7949C733.373 16.9818 733.143 17.0752 732.869 17.0752Z" fill="white"/>
<path d="M418 20C418 8.9543 426.954 0 438 0H563C574.046 0 583 8.95431 583 20V50H418V20Z" fill="#DDD0A4"/>
<path d="M460.832 15.6875V11.0596H458.467L458.282 13.623C458.223 14.5208 458.038 15.1908 457.729 15.6328V15.6875H460.832ZM456.929 18.8936H455.37V15.6875H455.944C456.409 15.4141 456.683 14.6963 456.765 13.5342L457.018 9.75391H462.527V15.6875H463.628V18.8936H462.069V17H456.929V18.8936ZM470.327 16.1387C469.694 16.8086 468.841 17.1436 467.771 17.1436C466.7 17.1436 465.847 16.8086 465.214 16.1387C464.58 15.4642 464.264 14.5436 464.264 13.377C464.264 12.2148 464.583 11.2965 465.221 10.6221C465.859 9.94303 466.709 9.60352 467.771 9.60352C468.837 9.60352 469.687 9.94303 470.32 10.6221C470.958 11.2965 471.277 12.2148 471.277 13.377C471.277 14.5436 470.961 15.4642 470.327 16.1387ZM466.472 15.1611C466.791 15.585 467.224 15.7969 467.771 15.7969C468.317 15.7969 468.75 15.585 469.069 15.1611C469.388 14.7373 469.548 14.1426 469.548 13.377C469.548 12.6159 469.388 12.0234 469.069 11.5996C468.75 11.1712 468.317 10.957 467.771 10.957C467.228 10.957 466.795 11.1712 466.472 11.5996C466.153 12.0234 465.993 12.6159 465.993 13.377C465.993 14.1426 466.153 14.7373 466.472 15.1611ZM475.181 10.0615C475.181 9.15007 475.509 8.40267 476.165 7.81934C476.821 7.23145 477.66 6.9375 478.681 6.9375C479.66 6.9375 480.467 7.2041 481.101 7.7373C481.739 8.27051 482.058 8.93815 482.058 9.74023C482.058 10.2917 481.903 10.8135 481.593 11.3057C481.287 11.7933 480.779 12.3949 480.068 13.1104L477.628 15.5234V15.5576H482.208V17H475.276V15.8105L478.906 12.2012C479.467 11.627 479.845 11.1781 480.041 10.8545C480.237 10.5309 480.335 10.1846 480.335 9.81543C480.335 9.40527 480.171 9.05892 479.843 8.77637C479.519 8.49382 479.114 8.35254 478.626 8.35254C478.111 8.35254 477.683 8.51432 477.341 8.83789C477.004 9.16146 476.835 9.56706 476.835 10.0547V10.082H475.181V10.0615ZM488.107 13.7529H483.616V12.2354H488.107V13.7529ZM492.346 14.4023H492.312L490.808 17H488.996L491.334 13.3838L489.017 9.75391H490.931L492.394 12.2969H492.428L493.87 9.75391H495.736L493.405 13.3359L495.709 17H493.85L492.346 14.4023ZM503.516 9.63086C504.436 9.63086 505.168 9.96582 505.71 10.6357C506.252 11.3057 506.523 12.2194 506.523 13.377C506.523 14.5299 506.255 15.4414 505.717 16.1113C505.179 16.7812 504.454 17.1162 503.543 17.1162C503.023 17.1162 502.565 17 502.169 16.7676C501.772 16.5306 501.474 16.207 501.273 15.7969H501.239V19.3857H499.537V9.75391H501.198V11.0049H501.232C501.442 10.5765 501.745 10.2415 502.142 10C502.538 9.75391 502.996 9.63086 503.516 9.63086ZM502.996 15.7217C503.548 15.7217 503.983 15.512 504.302 15.0928C504.621 14.6689 504.78 14.097 504.78 13.377C504.78 12.6615 504.618 12.0918 504.295 11.668C503.976 11.2441 503.543 11.0322 502.996 11.0322C502.467 11.0322 502.041 11.2464 501.718 11.6748C501.394 12.1032 501.23 12.6706 501.226 13.377C501.23 14.0879 501.394 14.6576 501.718 15.0859C502.041 15.5098 502.467 15.7217 502.996 15.7217ZM510.413 15.8311C510.901 15.8311 511.311 15.6875 511.644 15.4004C511.981 15.1087 512.149 14.7464 512.149 14.3135V13.7598L510.475 13.8623C510.064 13.8896 509.745 13.9922 509.518 14.1699C509.294 14.3431 509.183 14.5732 509.183 14.8604C509.183 15.1566 509.294 15.3936 509.518 15.5713C509.745 15.7445 510.044 15.8311 510.413 15.8311ZM509.9 17.1162C509.194 17.1162 508.613 16.9134 508.157 16.5078C507.706 16.1022 507.48 15.5758 507.48 14.9287C507.48 14.2861 507.717 13.778 508.191 13.4043C508.67 13.0306 509.351 12.8164 510.235 12.7617L512.149 12.6523V12.1328C512.149 11.7546 512.029 11.4606 511.787 11.251C511.55 11.0413 511.22 10.9365 510.796 10.9365C510.399 10.9365 510.076 11.0254 509.825 11.2031C509.575 11.3809 509.422 11.6224 509.367 11.9277H507.788C507.825 11.2396 508.118 10.6813 508.67 10.2529C509.226 9.81999 509.957 9.60352 510.864 9.60352C511.762 9.60352 512.48 9.82227 513.018 10.2598C513.56 10.6973 513.831 11.2806 513.831 12.0098V17H512.19V15.8447H512.156C511.951 16.2321 511.641 16.542 511.227 16.7744C510.812 17.0023 510.37 17.1162 509.9 17.1162ZM518.076 17.1436C517.183 17.1436 516.456 16.9385 515.896 16.5283C515.34 16.1182 515.027 15.5576 514.959 14.8467H516.613C516.686 15.1566 516.848 15.3936 517.099 15.5576C517.354 15.7217 517.68 15.8037 518.076 15.8037C518.505 15.8037 518.84 15.7148 519.081 15.5371C519.323 15.3548 519.443 15.1133 519.443 14.8125C519.443 14.1745 518.988 13.8555 518.076 13.8555H517.044V12.6797H518.042C518.826 12.6797 519.218 12.388 519.218 11.8047C519.218 11.5358 519.12 11.3216 518.924 11.1621C518.728 11.0026 518.438 10.9229 518.056 10.9229C517.682 10.9229 517.377 11.0026 517.14 11.1621C516.907 11.3171 516.768 11.5335 516.723 11.8115H515.109C515.182 11.1279 515.479 10.5902 515.998 10.1982C516.522 9.80176 517.208 9.60352 518.056 9.60352C518.958 9.60352 519.653 9.78581 520.141 10.1504C520.633 10.5104 520.879 11.0049 520.879 11.6338C520.879 12.0029 520.776 12.3265 520.571 12.6045C520.366 12.8825 520.09 13.0671 519.744 13.1582V13.2129C520.195 13.3223 520.539 13.5182 520.776 13.8008C521.013 14.0833 521.132 14.4297 521.132 14.8398C521.132 15.5417 520.856 16.1022 520.305 16.5215C519.753 16.9362 519.01 17.1436 518.076 17.1436ZM530.107 11.0664H526.888V17H525.192V9.75391H530.107V11.0664ZM536.882 16.1387C536.248 16.8086 535.396 17.1436 534.325 17.1436C533.254 17.1436 532.402 16.8086 531.769 16.1387C531.135 15.4642 530.818 14.5436 530.818 13.377C530.818 12.2148 531.137 11.2965 531.775 10.6221C532.413 9.94303 533.263 9.60352 534.325 9.60352C535.392 9.60352 536.242 9.94303 536.875 10.6221C537.513 11.2965 537.832 12.2148 537.832 13.377C537.832 14.5436 537.515 15.4642 536.882 16.1387ZM533.026 15.1611C533.345 15.585 533.778 15.7969 534.325 15.7969C534.872 15.7969 535.305 15.585 535.624 15.1611C535.943 14.7373 536.103 14.1426 536.103 13.377C536.103 12.6159 535.943 12.0234 535.624 11.5996C535.305 11.1712 534.872 10.957 534.325 10.957C533.783 10.957 533.35 11.1712 533.026 11.5996C532.707 12.0234 532.548 12.6159 532.548 13.377C532.548 14.1426 532.707 14.7373 533.026 15.1611ZM543.766 15.6875V11.0596H541.4L541.216 13.623C541.157 14.5208 540.972 15.1908 540.662 15.6328V15.6875H543.766ZM539.862 18.8936H538.304V15.6875H538.878C539.343 15.4141 539.616 14.6963 539.698 13.5342L539.951 9.75391H545.461V15.6875H546.562V18.8936H545.003V17H539.862V18.8936Z" fill="white"/>
<g filter="url(#filter0_d)">
<rect x="18" y="26" width="165" height="190" rx="20" fill="white"/>
<path d="M43.3037 162.125C42.7113 162.786 41.9274 163.116 40.9521 163.116C39.9769 163.116 39.193 162.786 38.6006 162.125C38.0081 161.46 37.7119 160.566 37.7119 159.445C37.7119 158.324 38.0081 157.433 38.6006 156.772C39.1976 156.107 39.9814 155.774 40.9521 155.774C41.9274 155.774 42.7113 156.107 43.3037 156.772C43.8962 157.433 44.1924 158.324 44.1924 159.445C44.1924 160.566 43.8962 161.46 43.3037 162.125ZM39.2637 161.551C39.6829 162.061 40.2458 162.316 40.9521 162.316C41.6585 162.316 42.2214 162.061 42.6406 161.551C43.0645 161.04 43.2764 160.339 43.2764 159.445C43.2764 158.552 43.0645 157.85 42.6406 157.34C42.2214 156.829 41.6585 156.574 40.9521 156.574C40.2458 156.574 39.6829 156.829 39.2637 157.34C38.8444 157.85 38.6348 158.552 38.6348 159.445C38.6348 160.339 38.8444 161.04 39.2637 161.551ZM48.5127 163.123C47.4554 163.123 46.6465 162.765 46.0859 162.05C45.5299 161.334 45.252 160.295 45.252 158.933C45.252 156.882 45.5322 155.421 46.0928 154.551C46.6579 153.676 47.624 153.22 48.9912 153.184C49.3102 153.184 49.5609 153.172 49.7432 153.149C50.4313 153.108 50.9531 153.001 51.3086 152.828V153.621C51.1992 153.703 51.0033 153.778 50.7207 153.847C50.4427 153.91 50.1328 153.951 49.791 153.97C49.5996 153.993 49.3444 154.004 49.0254 154.004C48.5059 154.018 48.0729 154.088 47.7266 154.216C47.3802 154.343 47.0908 154.553 46.8584 154.845C46.626 155.132 46.4482 155.485 46.3252 155.904C46.2021 156.324 46.1042 156.854 46.0312 157.497H46.0723C46.2956 157.014 46.6305 156.643 47.0771 156.383C47.5238 156.118 48.0456 155.986 48.6426 155.986C49.5951 155.986 50.3561 156.305 50.9258 156.943C51.4954 157.577 51.7803 158.429 51.7803 159.5C51.7803 160.612 51.4863 161.494 50.8984 162.146C50.3151 162.797 49.5199 163.123 48.5127 163.123ZM46.7969 161.571C47.2116 162.068 47.7835 162.316 48.5127 162.316C49.2419 162.316 49.8138 162.068 50.2285 161.571C50.6432 161.07 50.8506 160.38 50.8506 159.5C50.8506 158.652 50.6432 157.989 50.2285 157.511C49.8138 157.028 49.2419 156.786 48.5127 156.786C47.7835 156.786 47.2116 157.028 46.7969 157.511C46.3822 157.989 46.1748 158.652 46.1748 159.5C46.1748 160.38 46.3822 161.07 46.7969 161.571ZM56.4492 155.774C57.3516 155.774 58.0807 156.112 58.6367 156.786C59.1973 157.456 59.4775 158.342 59.4775 159.445C59.4775 160.548 59.1995 161.437 58.6436 162.111C58.0921 162.781 57.3675 163.116 56.4697 163.116C55.9092 163.116 55.4124 162.973 54.9795 162.686C54.5511 162.394 54.2412 162.011 54.0498 161.537H54.0225V165.352H53.1201V155.891H53.9746V157.395H54.002C54.2025 156.911 54.5192 156.522 54.9521 156.226C55.3851 155.925 55.8841 155.774 56.4492 155.774ZM56.292 162.316C56.9801 162.316 57.5293 162.057 57.9395 161.537C58.3496 161.013 58.5547 160.316 58.5547 159.445C58.5547 158.579 58.3473 157.884 57.9326 157.36C57.5225 156.836 56.9756 156.574 56.292 156.574C55.6175 156.574 55.0706 156.841 54.6514 157.374C54.2321 157.903 54.0225 158.593 54.0225 159.445C54.0225 160.302 54.2321 160.995 54.6514 161.523C55.0706 162.052 55.6175 162.316 56.292 162.316ZM63.0801 162.337C63.7044 162.337 64.2308 162.143 64.6592 161.756C65.0876 161.368 65.3018 160.892 65.3018 160.327V159.541L63.1963 159.685C62.6357 159.721 62.2051 159.858 61.9043 160.095C61.6035 160.327 61.4531 160.639 61.4531 161.031C61.4531 161.419 61.6035 161.733 61.9043 161.975C62.2051 162.216 62.597 162.337 63.0801 162.337ZM62.8955 163.116C62.1937 163.116 61.624 162.925 61.1865 162.542C60.7536 162.155 60.5371 161.651 60.5371 161.031C60.5371 160.421 60.7559 159.938 61.1934 159.582C61.6354 159.227 62.2666 159.021 63.0869 158.967L65.3018 158.83V158.215C65.3018 157.7 65.1468 157.299 64.8369 157.012C64.527 156.72 64.0964 156.574 63.5449 156.574C63.0254 156.574 62.6016 156.695 62.2734 156.937C61.9499 157.178 61.7493 157.515 61.6719 157.948H60.7969C60.847 157.301 61.1204 156.777 61.6172 156.376C62.1185 155.975 62.7679 155.774 63.5654 155.774C64.3766 155.774 65.0192 155.986 65.4932 156.41C65.9671 156.834 66.2041 157.408 66.2041 158.133V163H65.3428V161.646H65.3223C65.1263 162.089 64.805 162.444 64.3584 162.713C63.9118 162.982 63.4242 163.116 62.8955 163.116ZM77.7158 164.88H76.8682V163H67.8516V155.891H68.7471V162.248H71.7617V155.891H72.6572V162.248H75.6719V155.891H76.5742V162.248H77.7158V164.88ZM81.5508 156.567C80.9173 156.567 80.3955 156.788 79.9854 157.23C79.5798 157.668 79.3587 158.24 79.3223 158.946H83.7109C83.7018 158.24 83.499 157.668 83.1025 157.23C82.7061 156.788 82.1888 156.567 81.5508 156.567ZM83.6562 160.983H84.5518C84.4424 161.608 84.1188 162.12 83.5811 162.521C83.0479 162.918 82.3939 163.116 81.6191 163.116C80.6211 163.116 79.8327 162.79 79.2539 162.139C78.6751 161.482 78.3857 160.591 78.3857 159.466C78.3857 158.358 78.6751 157.467 79.2539 156.793C79.8327 156.114 80.6029 155.774 81.5645 155.774C82.5033 155.774 83.2507 156.093 83.8066 156.731C84.3626 157.369 84.6406 158.219 84.6406 159.281V159.664H79.3154V159.719C79.3154 160.521 79.5251 161.157 79.9443 161.626C80.3636 162.091 80.9287 162.323 81.6396 162.323C82.1637 162.323 82.6058 162.2 82.9658 161.954C83.3258 161.708 83.556 161.384 83.6562 160.983ZM90.7861 163V159.691H86.876V163H85.9805V155.891H86.876V158.939H90.7861V155.891H91.6816V163H90.7861ZM94.2725 163H93.377V155.891H94.2725V161.605H94.3203L98.2783 155.891H99.1738V163H98.2783V157.285H98.2373L94.2725 163ZM103.255 159.575H104.848V156.643H103.255C102.735 156.643 102.323 156.777 102.018 157.046C101.712 157.315 101.56 157.682 101.56 158.146C101.56 158.57 101.715 158.914 102.024 159.179C102.334 159.443 102.744 159.575 103.255 159.575ZM104.848 163V160.327H103.357L101.409 163H100.363L102.435 160.177C101.883 160.063 101.45 159.828 101.136 159.473C100.821 159.117 100.664 158.68 100.664 158.16C100.664 157.463 100.896 156.911 101.361 156.506C101.831 156.096 102.46 155.891 103.248 155.891H105.743V163H104.848ZM112.155 159.274L115.888 163H114.698L111.239 159.534H111.198V163H110.303V155.891H111.198V159.083H111.239L114.609 155.891H115.751L112.155 159.274ZM122.525 156.636H120.659V158.953H122.396C122.883 158.953 123.255 158.851 123.51 158.646C123.77 158.44 123.899 158.144 123.899 157.757C123.899 157.401 123.779 157.126 123.537 156.93C123.3 156.734 122.963 156.636 122.525 156.636ZM122.464 159.691H120.659V162.255H122.628C123.152 162.255 123.551 162.146 123.824 161.927C124.098 161.708 124.234 161.387 124.234 160.963C124.234 160.544 124.082 160.227 123.776 160.013C123.476 159.799 123.038 159.691 122.464 159.691ZM119.764 163V155.891H122.635C123.3 155.891 123.824 156.05 124.207 156.369C124.59 156.684 124.781 157.119 124.781 157.675C124.781 158.067 124.663 158.411 124.426 158.707C124.193 159.003 123.897 159.186 123.537 159.254V159.302C124.007 159.356 124.387 159.534 124.679 159.835C124.975 160.136 125.123 160.519 125.123 160.983C125.123 161.617 124.904 162.111 124.467 162.467C124.034 162.822 123.435 163 122.669 163H119.764ZM129.812 155.774C130.715 155.774 131.444 156.112 132 156.786C132.561 157.456 132.841 158.342 132.841 159.445C132.841 160.548 132.563 161.437 132.007 162.111C131.455 162.781 130.731 163.116 129.833 163.116C129.272 163.116 128.776 162.973 128.343 162.686C127.914 162.394 127.604 162.011 127.413 161.537H127.386V165.352H126.483V155.891H127.338V157.395H127.365C127.566 156.911 127.882 156.522 128.315 156.226C128.748 155.925 129.247 155.774 129.812 155.774ZM129.655 162.316C130.343 162.316 130.893 162.057 131.303 161.537C131.713 161.013 131.918 160.316 131.918 159.445C131.918 158.579 131.711 157.884 131.296 157.36C130.886 156.836 130.339 156.574 129.655 156.574C128.981 156.574 128.434 156.841 128.015 157.374C127.595 157.903 127.386 158.593 127.386 159.445C127.386 160.302 127.595 160.995 128.015 161.523C128.434 162.052 128.981 162.316 129.655 162.316ZM136.443 162.337C137.068 162.337 137.594 162.143 138.022 161.756C138.451 161.368 138.665 160.892 138.665 160.327V159.541L136.56 159.685C135.999 159.721 135.568 159.858 135.268 160.095C134.967 160.327 134.816 160.639 134.816 161.031C134.816 161.419 134.967 161.733 135.268 161.975C135.568 162.216 135.96 162.337 136.443 162.337ZM136.259 163.116C135.557 163.116 134.987 162.925 134.55 162.542C134.117 162.155 133.9 161.651 133.9 161.031C133.9 160.421 134.119 159.938 134.557 159.582C134.999 159.227 135.63 159.021 136.45 158.967L138.665 158.83V158.215C138.665 157.7 138.51 157.299 138.2 157.012C137.89 156.72 137.46 156.574 136.908 156.574C136.389 156.574 135.965 156.695 135.637 156.937C135.313 157.178 135.113 157.515 135.035 157.948H134.16C134.21 157.301 134.484 156.777 134.98 156.376C135.482 155.975 136.131 155.774 136.929 155.774C137.74 155.774 138.382 155.986 138.856 156.41C139.33 156.834 139.567 157.408 139.567 158.133V163H138.706V161.646H138.686C138.49 162.089 138.168 162.444 137.722 162.713C137.275 162.982 136.787 163.116 136.259 163.116ZM146.438 163H145.542V159.787H145.46C145 160.206 144.391 160.416 143.635 160.416C142.801 160.416 142.158 160.186 141.707 159.726C141.256 159.265 141.03 158.646 141.03 157.866V155.891H141.926V157.853C141.926 158.395 142.074 158.826 142.37 159.145C142.671 159.459 143.099 159.616 143.655 159.616C144.457 159.616 145.086 159.359 145.542 158.844V155.891H146.438V163ZM150.43 162.337C151.054 162.337 151.58 162.143 152.009 161.756C152.437 161.368 152.651 160.892 152.651 160.327V159.541L150.546 159.685C149.985 159.721 149.555 159.858 149.254 160.095C148.953 160.327 148.803 160.639 148.803 161.031C148.803 161.419 148.953 161.733 149.254 161.975C149.555 162.216 149.947 162.337 150.43 162.337ZM150.245 163.116C149.543 163.116 148.974 162.925 148.536 162.542C148.103 162.155 147.887 161.651 147.887 161.031C147.887 160.421 148.105 159.938 148.543 159.582C148.985 159.227 149.616 159.021 150.437 158.967L152.651 158.83V158.215C152.651 157.7 152.496 157.299 152.187 157.012C151.877 156.72 151.446 156.574 150.895 156.574C150.375 156.574 149.951 156.695 149.623 156.937C149.299 157.178 149.099 157.515 149.021 157.948H148.146C148.197 157.301 148.47 156.777 148.967 156.376C149.468 155.975 150.118 155.774 150.915 155.774C151.726 155.774 152.369 155.986 152.843 156.41C153.317 156.834 153.554 157.408 153.554 158.133V163H152.692V161.646H152.672C152.476 162.089 152.155 162.444 151.708 162.713C151.261 162.982 150.774 163.116 150.245 163.116ZM156.097 163H155.201V155.891H156.288L159.063 161.811H159.111L161.887 155.891H162.933V163H162.03V157.49H161.996L159.419 162.856H158.715L156.138 157.49H156.097V163ZM58.7803 176.438H54.2959V175.591H58.7803V176.438ZM66.1289 175.003H65.2334C65.1104 174.584 64.8734 174.242 64.5225 173.978C64.1761 173.709 63.7432 173.574 63.2236 173.574C62.5309 173.574 61.9772 173.836 61.5625 174.36C61.1478 174.88 60.9404 175.575 60.9404 176.445C60.9404 177.325 61.1478 178.024 61.5625 178.544C61.9818 179.059 62.54 179.316 63.2373 179.316C63.7432 179.316 64.1693 179.196 64.5156 178.954C64.8665 178.708 65.1035 178.371 65.2266 177.942H66.1289C66.0013 178.59 65.6755 179.114 65.1514 179.515C64.6273 179.916 63.987 180.116 63.2305 180.116C62.2552 180.116 61.4759 179.786 60.8926 179.125C60.3092 178.464 60.0176 177.571 60.0176 176.445C60.0176 175.333 60.3092 174.445 60.8926 173.779C61.4759 173.109 62.2529 172.774 63.2236 172.774C63.9984 172.774 64.6432 172.986 65.1582 173.41C65.6777 173.834 66.0013 174.365 66.1289 175.003ZM72.1514 180V173.643H68.3027V180H67.4072V172.891H73.0469V180H72.1514ZM77.5518 173.567C76.9183 173.567 76.3965 173.788 75.9863 174.23C75.5807 174.668 75.3597 175.24 75.3232 175.946H79.7119C79.7028 175.24 79.5 174.668 79.1035 174.23C78.707 173.788 78.1898 173.567 77.5518 173.567ZM79.6572 177.983H80.5527C80.4434 178.608 80.1198 179.12 79.582 179.521C79.0488 179.918 78.3949 180.116 77.6201 180.116C76.6221 180.116 75.8337 179.79 75.2549 179.139C74.6761 178.482 74.3867 177.591 74.3867 176.466C74.3867 175.358 74.6761 174.467 75.2549 173.793C75.8337 173.114 76.6038 172.774 77.5654 172.774C78.5042 172.774 79.2516 173.093 79.8076 173.731C80.3636 174.369 80.6416 175.219 80.6416 176.281V176.664H75.3164V176.719C75.3164 177.521 75.526 178.157 75.9453 178.626C76.3646 179.091 76.9297 179.323 77.6406 179.323C78.1647 179.323 78.6068 179.2 78.9668 178.954C79.3268 178.708 79.557 178.384 79.6572 177.983ZM88.7285 181.88H87.8809V180H81.9814V172.891H82.877V179.248H86.6777V172.891H87.5732V179.248H88.7285V181.88ZM90.6836 180H89.7881V172.891H90.6836V178.605H90.7314L94.6895 172.891H95.585V180H94.6895V174.285H94.6484L90.6836 180ZM99.5635 179.337C100.188 179.337 100.714 179.143 101.143 178.756C101.571 178.368 101.785 177.892 101.785 177.327V176.541L99.6797 176.685C99.1191 176.721 98.6885 176.858 98.3877 177.095C98.0869 177.327 97.9365 177.639 97.9365 178.031C97.9365 178.419 98.0869 178.733 98.3877 178.975C98.6885 179.216 99.0804 179.337 99.5635 179.337ZM99.3789 180.116C98.6771 180.116 98.1074 179.925 97.6699 179.542C97.237 179.155 97.0205 178.651 97.0205 178.031C97.0205 177.421 97.2393 176.938 97.6768 176.582C98.1188 176.227 98.75 176.021 99.5703 175.967L101.785 175.83V175.215C101.785 174.7 101.63 174.299 101.32 174.012C101.01 173.72 100.58 173.574 100.028 173.574C99.5088 173.574 99.085 173.695 98.7568 173.937C98.4333 174.178 98.2327 174.515 98.1553 174.948H97.2803C97.3304 174.301 97.6038 173.777 98.1006 173.376C98.6019 172.975 99.2513 172.774 100.049 172.774C100.86 172.774 101.503 172.986 101.977 173.41C102.451 173.834 102.688 174.408 102.688 175.133V180H101.826V178.646H101.806C101.61 179.089 101.288 179.444 100.842 179.713C100.395 179.982 99.9076 180.116 99.3789 180.116ZM105.989 176.931C105.953 177.427 105.896 177.854 105.818 178.209C105.745 178.56 105.638 178.883 105.497 179.18C105.356 179.471 105.167 179.692 104.93 179.843C104.693 179.989 104.408 180.062 104.075 180.062C103.929 180.062 103.795 180.039 103.672 179.993V179.173C103.781 179.209 103.902 179.228 104.034 179.228C104.381 179.228 104.636 179.029 104.8 178.633C104.968 178.232 105.08 177.655 105.135 176.903C105.153 176.716 105.199 176.062 105.271 174.941C105.349 173.816 105.395 173.132 105.408 172.891H109.961V180H109.065V173.643H106.222C106.158 174.805 106.08 175.901 105.989 176.931ZM112.545 180H111.649V172.891H112.545V178.605H112.593L116.551 172.891H117.446V180H116.551V174.285H116.51L112.545 180ZM124.891 175.003H123.995C123.872 174.584 123.635 174.242 123.284 173.978C122.938 173.709 122.505 173.574 121.985 173.574C121.293 173.574 120.739 173.836 120.324 174.36C119.91 174.88 119.702 175.575 119.702 176.445C119.702 177.325 119.91 178.024 120.324 178.544C120.743 179.059 121.302 179.316 121.999 179.316C122.505 179.316 122.931 179.196 123.277 178.954C123.628 178.708 123.865 178.371 123.988 177.942H124.891C124.763 178.59 124.437 179.114 123.913 179.515C123.389 179.916 122.749 180.116 121.992 180.116C121.017 180.116 120.238 179.786 119.654 179.125C119.071 178.464 118.779 177.571 118.779 176.445C118.779 175.333 119.071 174.445 119.654 173.779C120.238 173.109 121.015 172.774 121.985 172.774C122.76 172.774 123.405 172.986 123.92 173.41C124.439 173.834 124.763 174.365 124.891 175.003ZM131.111 172.891V173.643H128.691V180H127.796V173.643H125.376V172.891H131.111ZM134.099 179.337C134.723 179.337 135.249 179.143 135.678 178.756C136.106 178.368 136.32 177.892 136.32 177.327V176.541L134.215 176.685C133.654 176.721 133.224 176.858 132.923 177.095C132.622 177.327 132.472 177.639 132.472 178.031C132.472 178.419 132.622 178.733 132.923 178.975C133.224 179.216 133.616 179.337 134.099 179.337ZM133.914 180.116C133.212 180.116 132.643 179.925 132.205 179.542C131.772 179.155 131.556 178.651 131.556 178.031C131.556 177.421 131.774 176.938 132.212 176.582C132.654 176.227 133.285 176.021 134.105 175.967L136.32 175.83V175.215C136.32 174.7 136.165 174.299 135.855 174.012C135.546 173.72 135.115 173.574 134.563 173.574C134.044 173.574 133.62 173.695 133.292 173.937C132.968 174.178 132.768 174.515 132.69 174.948H131.815C131.866 174.301 132.139 173.777 132.636 173.376C133.137 172.975 133.786 172.774 134.584 172.774C135.395 172.774 136.038 172.986 136.512 173.41C136.986 173.834 137.223 174.408 137.223 175.133V180H136.361V178.646H136.341C136.145 179.089 135.824 179.444 135.377 179.713C134.93 179.982 134.443 180.116 133.914 180.116ZM139.766 180H138.87V172.891H139.957L142.732 178.811H142.78L145.556 172.891H146.602V180H145.699V174.49H145.665L143.088 179.856H142.384L139.807 174.49H139.766V180Z" fill="#0D1C41"/>
<path d="M117.266 89.5469C118.733 89.5469 119.922 88.3576 119.922 86.8906C119.922 85.4236 118.733 84.2344 117.266 84.2344C115.799 84.2344 114.609 85.4236 114.609 86.8906C114.609 88.3576 115.799 89.5469 117.266 89.5469Z" fill="black"/>
<path d="M105.711 89.5469C107.178 89.5469 108.367 88.3576 108.367 86.8906C108.367 85.4236 107.178 84.2344 105.711 84.2344C104.244 84.2344 103.055 85.4236 103.055 86.8906C103.055 88.3576 104.244 89.5469 105.711 89.5469Z" fill="black"/>
<path d="M82.6016 112.656C84.0686 112.656 85.2578 111.467 85.2578 110C85.2578 108.533 84.0686 107.344 82.6016 107.344C81.1346 107.344 79.9453 108.533 79.9453 110C79.9453 111.467 81.1346 112.656 82.6016 112.656Z" fill="black"/>
<path d="M82.6016 89.5469C84.0686 89.5469 85.2578 88.3576 85.2578 86.8906C85.2578 85.4236 84.0686 84.2344 82.6016 84.2344C81.1346 84.2344 79.9453 85.4236 79.9453 86.8906C79.9453 88.3576 81.1346 89.5469 82.6016 89.5469Z" fill="black"/>
<path d="M82.6016 101.102C84.0686 101.102 85.2578 99.9123 85.2578 98.4453C85.2578 96.9783 84.0686 95.7891 82.6016 95.7891C81.1346 95.7891 79.9453 96.9783 79.9453 98.4453C79.9453 99.9123 81.1346 101.102 82.6016 101.102Z" fill="black"/>
<path d="M94.1562 101.102C95.6233 101.102 96.8125 99.9123 96.8125 98.4453C96.8125 96.9783 95.6233 95.7891 94.1562 95.7891C92.6892 95.7891 91.5 96.9783 91.5 98.4453C91.5 99.9123 92.6892 101.102 94.1562 101.102Z" fill="black"/>
<path d="M94.1562 89.5469C95.6233 89.5469 96.8125 88.3576 96.8125 86.8906C96.8125 85.4236 95.6233 84.2344 94.1562 84.2344C92.6892 84.2344 91.5 85.4236 91.5 86.8906C91.5 88.3576 92.6892 89.5469 94.1562 89.5469Z" fill="black"/>
<path d="M94.1562 112.656C95.6233 112.656 96.8125 111.467 96.8125 110C96.8125 108.533 95.6233 107.344 94.1562 107.344C92.6892 107.344 91.5 108.533 91.5 110C91.5 111.467 92.6892 112.656 94.1562 112.656Z" fill="black"/>
<rect x="105.148" y="97.5186" width="13" height="13" rx="4" stroke="black" stroke-width="4"/>
<rect x="68" y="66.037" width="64" height="58.963" rx="14" stroke="black" stroke-width="4"/>
<line x1="81.8518" y1="61" x2="81.8518" y2="70.8519" stroke="black" stroke-width="4" stroke-linecap="round"/>
<line x1="100.741" y1="61" x2="100.741" y2="70.8519" stroke="black" stroke-width="4" stroke-linecap="round"/>
<line x1="118.37" y1="61" x2="118.37" y2="70.8519" stroke="black" stroke-width="4" stroke-linecap="round"/>
</g>
<defs>
<filter id="filter0_d" x="0" y="10" width="201" height="226" filterUnits="userSpaceOnUse" color-interpolation-filters="sRGB">
<feFlood flood-opacity="0" result="BackgroundImageFix"/>
<feColorMatrix in="SourceAlpha" type="matrix" values="0 0 0 0 0 0 0 0 0 0 0 0 0 0 0 0 0 0 127 0" result="hardAlpha"/>
<feOffset dy="2"/>
<feGaussianBlur stdDeviation="9"/>
<feColorMatrix type="matrix" values="0 0 0 0 0.160784 0 0 0 0 0.160784 0 0 0 0 0.160784 0 0 0 0.1 0"/>
<feBlend mode="normal" in2="BackgroundImageFix" result="effect1_dropShadow"/>
<feBlend mode="normal" in="SourceGraphic" in2="effect1_dropShadow" result="shape"/>
</filter>
</defs>
</svg>
