<svg width="201" height="236" viewBox="0 0 201 236" fill="none" xmlns="http://www.w3.org/2000/svg">
<path d="M18 20C18 8.9543 26.9543 0 38 0H163C174.046 0 183 8.95431 183 20V50H18V20Z" fill="#DDD0A4"/>
<path d="M49.1074 17.1436C47.9544 17.1436 47.0703 16.7767 46.4551 16.043C45.8444 15.3092 45.5391 14.2337 45.5391 12.8164C45.5391 11.472 45.6826 10.3828 45.9697 9.54883C46.2614 8.71029 46.6943 8.09505 47.2686 7.70312C47.8473 7.3112 48.5947 7.09928 49.5107 7.06738L50.2422 7.04688C50.6523 7.02865 51.0374 6.98763 51.3975 6.92383C51.7575 6.86003 52.0059 6.79167 52.1426 6.71875V8.0791C52.0605 8.15658 51.8486 8.23177 51.5068 8.30469C51.1696 8.37305 50.7822 8.41634 50.3447 8.43457L49.6406 8.45508C49.1712 8.46875 48.7747 8.53483 48.4512 8.65332C48.1322 8.76725 47.8656 8.94727 47.6514 9.19336C47.4417 9.4349 47.2777 9.72656 47.1592 10.0684C47.0407 10.4056 46.9495 10.8294 46.8857 11.3398H46.9404C47.1683 10.9023 47.4919 10.5697 47.9111 10.3418C48.3304 10.1094 48.8271 9.99316 49.4014 9.99316C50.3812 9.99316 51.1628 10.3076 51.7461 10.9365C52.3294 11.5609 52.6211 12.404 52.6211 13.4658C52.6211 14.6051 52.3066 15.5029 51.6777 16.1592C51.0534 16.8154 50.1966 17.1436 49.1074 17.1436ZM49.0869 15.7627C49.652 15.7627 50.0918 15.5667 50.4062 15.1748C50.7207 14.7783 50.8779 14.2201 50.8779 13.5C50.8779 12.8073 50.7207 12.2718 50.4062 11.8936C50.0918 11.5107 49.652 11.3193 49.0869 11.3193C48.5173 11.3193 48.0729 11.5107 47.7539 11.8936C47.4395 12.2718 47.2822 12.8073 47.2822 13.5C47.2822 14.2246 47.4395 14.7829 47.7539 15.1748C48.0684 15.5667 48.5127 15.7627 49.0869 15.7627ZM56.9824 10.9229C56.5085 10.9229 56.112 11.0869 55.793 11.415C55.4785 11.7386 55.3031 12.1556 55.2666 12.666H58.6504C58.6322 12.151 58.4704 11.7318 58.165 11.4082C57.8597 11.0846 57.4655 10.9229 56.9824 10.9229ZM58.6572 14.833H60.25C60.1406 15.5212 59.792 16.0794 59.2041 16.5078C58.6162 16.9316 57.8962 17.1436 57.0439 17.1436C55.9593 17.1436 55.1071 16.8109 54.4873 16.1455C53.8675 15.4756 53.5576 14.5618 53.5576 13.4043C53.5576 12.2559 53.8652 11.3353 54.4805 10.6426C55.1003 9.94987 55.932 9.60352 56.9756 9.60352C58.001 9.60352 58.8145 9.93392 59.416 10.5947C60.0176 11.251 60.3184 12.1305 60.3184 13.2334V13.7871H55.2529V13.8896C55.2529 14.473 55.417 14.9424 55.7451 15.2979C56.0778 15.6533 56.5221 15.8311 57.0781 15.8311C57.4701 15.8311 57.8073 15.7422 58.0898 15.5645C58.377 15.3822 58.5661 15.1383 58.6572 14.833ZM64.29 17.1436C63.3968 17.1436 62.6699 16.9385 62.1094 16.5283C61.5534 16.1182 61.2412 15.5576 61.1729 14.8467H62.8271C62.9001 15.1566 63.0618 15.3936 63.3125 15.5576C63.5677 15.7217 63.8936 15.8037 64.29 15.8037C64.7184 15.8037 65.0534 15.7148 65.2949 15.5371C65.5365 15.3548 65.6572 15.1133 65.6572 14.8125C65.6572 14.1745 65.2015 13.8555 64.29 13.8555H63.2578V12.6797H64.2559C65.0397 12.6797 65.4316 12.388 65.4316 11.8047C65.4316 11.5358 65.3337 11.3216 65.1377 11.1621C64.9417 11.0026 64.6523 10.9229 64.2695 10.9229C63.8958 10.9229 63.5905 11.0026 63.3535 11.1621C63.1211 11.3171 62.9821 11.5335 62.9365 11.8115H61.3232C61.3962 11.1279 61.6924 10.5902 62.2119 10.1982C62.736 9.80176 63.4219 9.60352 64.2695 9.60352C65.1719 9.60352 65.8669 9.78581 66.3545 10.1504C66.8467 10.5104 67.0928 11.0049 67.0928 11.6338C67.0928 12.0029 66.9902 12.3265 66.7852 12.6045C66.5801 12.8825 66.3044 13.0671 65.958 13.1582V13.2129C66.4092 13.3223 66.7533 13.5182 66.9902 13.8008C67.2272 14.0833 67.3457 14.4297 67.3457 14.8398C67.3457 15.5417 67.07 16.1022 66.5186 16.5215C65.9671 16.9362 65.2243 17.1436 64.29 17.1436ZM77.1758 16.1387C76.5423 16.8086 75.6901 17.1436 74.6191 17.1436C73.5482 17.1436 72.696 16.8086 72.0625 16.1387C71.429 15.4642 71.1123 14.5436 71.1123 13.377C71.1123 12.2148 71.4313 11.2965 72.0693 10.6221C72.7074 9.94303 73.5573 9.60352 74.6191 9.60352C75.6855 9.60352 76.5355 9.94303 77.1689 10.6221C77.807 11.2965 78.126 12.2148 78.126 13.377C78.126 14.5436 77.8092 15.4642 77.1758 16.1387ZM73.3203 15.1611C73.6393 15.585 74.0723 15.7969 74.6191 15.7969C75.166 15.7969 75.599 15.585 75.918 15.1611C76.237 14.7373 76.3965 14.1426 76.3965 13.377C76.3965 12.6159 76.237 12.0234 75.918 11.5996C75.599 11.1712 75.166 10.957 74.6191 10.957C74.0768 10.957 73.6439 11.1712 73.3203 11.5996C73.0013 12.0234 72.8418 12.6159 72.8418 13.377C72.8418 14.1426 73.0013 14.7373 73.3203 15.1611ZM84.2646 11.0664H81.0449V17H79.3496V9.75391H84.2646V11.0664ZM89.4463 9.63086C90.3669 9.63086 91.0983 9.96582 91.6406 10.6357C92.1829 11.3057 92.4541 12.2194 92.4541 13.377C92.4541 14.5299 92.1852 15.4414 91.6475 16.1113C91.1097 16.7812 90.3851 17.1162 89.4736 17.1162C88.9541 17.1162 88.4961 17 88.0996 16.7676C87.7031 16.5306 87.4046 16.207 87.2041 15.7969H87.1699V19.3857H85.4678V9.75391H87.1289V11.0049H87.1631C87.3727 10.5765 87.6758 10.2415 88.0723 10C88.4688 9.75391 88.9268 9.63086 89.4463 9.63086ZM88.9268 15.7217C89.4782 15.7217 89.9134 15.512 90.2324 15.0928C90.5514 14.6689 90.7109 14.097 90.7109 13.377C90.7109 12.6615 90.5492 12.0918 90.2256 11.668C89.9066 11.2441 89.4736 11.0322 88.9268 11.0322C88.3981 11.0322 87.972 11.2464 87.6484 11.6748C87.3249 12.1032 87.1608 12.6706 87.1562 13.377C87.1608 14.0879 87.3249 14.6576 87.6484 15.0859C87.972 15.5098 88.3981 15.7217 88.9268 15.7217ZM96.3438 15.8311C96.8314 15.8311 97.2415 15.6875 97.5742 15.4004C97.9115 15.1087 98.0801 14.7464 98.0801 14.3135V13.7598L96.4053 13.8623C95.9951 13.8896 95.6761 13.9922 95.4482 14.1699C95.2249 14.3431 95.1133 14.5732 95.1133 14.8604C95.1133 15.1566 95.2249 15.3936 95.4482 15.5713C95.6761 15.7445 95.9746 15.8311 96.3438 15.8311ZM95.8311 17.1162C95.1247 17.1162 94.5436 16.9134 94.0879 16.5078C93.6367 16.1022 93.4111 15.5758 93.4111 14.9287C93.4111 14.2861 93.6481 13.778 94.1221 13.4043C94.6006 13.0306 95.2819 12.8164 96.166 12.7617L98.0801 12.6523V12.1328C98.0801 11.7546 97.9593 11.4606 97.7178 11.251C97.4808 11.0413 97.1504 10.9365 96.7266 10.9365C96.3301 10.9365 96.0065 11.0254 95.7559 11.2031C95.5052 11.3809 95.3525 11.6224 95.2979 11.9277H93.7188C93.7552 11.2396 94.0492 10.6813 94.6006 10.2529C95.1566 9.81999 95.888 9.60352 96.7949 9.60352C97.6927 9.60352 98.4105 9.82227 98.9482 10.2598C99.4906 10.6973 99.7617 11.2806 99.7617 12.0098V17H98.1211V15.8447H98.0869C97.8818 16.2321 97.5719 16.542 97.1572 16.7744C96.7425 17.0023 96.3005 17.1162 95.8311 17.1162ZM106.01 17V13.9238H102.947V17H101.252V9.75391H102.947V12.6113H106.01V9.75391H107.705V17H106.01ZM110.904 17H109.236V9.75391H110.904V14.5938H110.959L114.11 9.75391H115.778V17H114.11V12.126H114.056L110.904 17ZM123.407 17H121.712V13.9443H121.63C121.188 14.3864 120.579 14.6074 119.805 14.6074C118.971 14.6074 118.319 14.3704 117.85 13.8965C117.385 13.418 117.152 12.7731 117.152 11.9619V9.75391H118.841V11.7705C118.841 12.2126 118.957 12.5589 119.189 12.8096C119.426 13.0602 119.759 13.1855 120.188 13.1855C120.867 13.1855 121.375 12.9759 121.712 12.5566V9.75391H123.407V17ZM128.062 10.9229C127.589 10.9229 127.192 11.0869 126.873 11.415C126.559 11.7386 126.383 12.1556 126.347 12.666H129.73C129.712 12.151 129.55 11.7318 129.245 11.4082C128.94 11.0846 128.546 10.9229 128.062 10.9229ZM129.737 14.833H131.33C131.221 15.5212 130.872 16.0794 130.284 16.5078C129.696 16.9316 128.976 17.1436 128.124 17.1436C127.039 17.1436 126.187 16.8109 125.567 16.1455C124.948 15.4756 124.638 14.5618 124.638 13.4043C124.638 12.2559 124.945 11.3353 125.561 10.6426C126.18 9.94987 127.012 9.60352 128.056 9.60352C129.081 9.60352 129.895 9.93392 130.496 10.5947C131.098 11.251 131.398 12.1305 131.398 13.2334V13.7871H126.333V13.8896C126.333 14.473 126.497 14.9424 126.825 15.2979C127.158 15.6533 127.602 15.8311 128.158 15.8311C128.55 15.8311 128.887 15.7422 129.17 15.5645C129.457 15.3822 129.646 15.1383 129.737 14.833ZM137.373 17V13.9238H134.311V17H132.615V9.75391H134.311V12.6113H137.373V9.75391H139.068V17H137.373ZM142.268 17H140.6V9.75391H142.268V14.5938H142.322L145.474 9.75391H147.142V17H145.474V12.126H145.419L142.268 17ZM150.334 17H148.666V9.75391H150.334V14.5938H150.389L153.54 9.75391H155.208V17H153.54V12.126H153.485L150.334 17ZM149.691 6.52051H150.785C150.79 6.90788 150.904 7.22461 151.127 7.4707C151.355 7.7168 151.653 7.83984 152.022 7.83984C152.392 7.83984 152.688 7.7168 152.911 7.4707C153.139 7.22461 153.255 6.90788 153.26 6.52051H154.354C154.354 7.18132 154.139 7.71452 153.711 8.12012C153.283 8.52116 152.72 8.72168 152.022 8.72168C151.325 8.72168 150.762 8.52116 150.334 8.12012C149.906 7.71452 149.691 7.18132 149.691 6.52051Z" fill="white"/>
<g filter="url(#filter0_d)">
<rect x="18" y="26" width="165" height="190" rx="20" fill="white"/>
<g clip-path="url(#clip0)">
<path d="M126.088 71.9954L125.707 65.5702C125.639 64.5106 124.756 63.6956 123.683 63.7635C122.624 63.8314 121.822 64.7279 121.877 65.7875L121.985 67.6757C116.443 63.5325 109.719 61.2776 102.655 61.2776C94.0157 61.2776 85.8924 64.6464 79.7931 70.7457C79.046 71.4928 79.046 72.7018 79.7931 73.4625C80.8255 74.4949 82.1296 73.8429 82.51 73.4625C87.8893 68.0832 95.0481 65.1083 102.669 65.1083C108.727 65.1083 114.487 66.9829 119.296 70.4604L117.638 70.5691C116.579 70.637 115.777 71.5336 115.832 72.5931C115.886 73.6119 116.742 74.3998 117.747 74.3998C117.788 74.3998 124.281 74.0195 124.281 74.0195C125.341 73.9515 126.142 73.055 126.088 71.9954Z" fill="#0D1C41"/>
<path d="M95.2791 121.143C81.6135 117.489 72.9469 104.434 74.3053 90.7958L75.2154 92.1678C75.5822 92.7248 76.7504 93.3904 77.8643 92.7112C78.7608 92.1542 78.9918 90.9453 78.4077 90.0623L74.8758 84.683C74.5905 84.2619 74.1558 83.963 73.6668 83.8544C73.1642 83.7593 72.648 83.8544 72.2269 84.126L66.8612 87.6579C65.9782 88.242 65.7337 89.4238 66.3178 90.3068C66.9019 91.1898 68.0837 91.4343 68.9667 90.8502L70.5561 89.8042C68.695 105.507 78.5978 120.64 94.2875 124.838C94.4505 124.878 96.1485 125.082 96.6375 123.479C96.95 122.474 96.3115 121.414 95.2791 121.143Z" fill="#0D1C41"/>
<path d="M133.899 85.24C133.627 84.2212 132.567 83.6099 131.549 83.8816C130.53 84.1532 129.918 85.2128 130.19 86.2316C133.844 99.8972 126.889 113.943 114.392 119.581L115.125 118.1C115.601 117.149 115.22 116.008 114.27 115.532C113.319 115.057 112.164 115.437 111.702 116.388L108.822 122.134C108.347 123.085 108.727 124.226 109.678 124.702L115.424 127.582C115.696 127.717 117.231 128.057 117.992 126.726C118.521 125.802 118.087 124.634 117.136 124.158L115.411 123.289C129.946 117.068 138.096 100.943 133.899 85.24Z" fill="#0D1C41"/>
<path d="M93.8119 100.495L97.2623 96.8951C98.6071 95.4959 100.781 93.5127 100.781 90.6192C100.781 88.8126 99.395 84.7781 94.5726 84.7781C90.9049 84.7781 88.4598 87.6036 87.5632 88.9891L90.9728 91.0132C92.046 89.3016 93.1871 88.4458 94.3825 88.4458C96.7053 88.4458 96.6238 90.0487 96.6238 90.6872C96.6238 92.3716 94.6134 94.2598 93.4859 95.4144L87.8893 101.147V104.312H101.351V100.495H93.8119Z" fill="#0D1C41"/>
<path d="M115.587 96.0529V92.7248H111.498V96.0529H108.795L115.261 85.2128H110.629L103.823 96.4876V99.7342H111.498V104.298H115.587V99.7342H117.747V96.0529H115.587Z" fill="#0D1C41"/>
<path d="M122.393 82.754C121.741 82.754 121.157 83.0121 120.64 83.5419V80.499H118.915V89.0298H120.64V85.6881C120.64 85.1991 120.763 84.2211 121.931 84.2211C122.624 84.2211 122.977 84.6965 122.977 85.6474V89.0298H124.702V85.2806C124.702 84.0581 123.941 82.754 122.393 82.754Z" fill="#0D1C41"/>
</g>
<path d="M40.4727 162.125C39.8802 162.786 39.0964 163.116 38.1211 163.116C37.1458 163.116 36.362 162.786 35.7695 162.125C35.1771 161.46 34.8809 160.566 34.8809 159.445C34.8809 158.324 35.1771 157.433 35.7695 156.772C36.3665 156.107 37.1504 155.774 38.1211 155.774C39.0964 155.774 39.8802 156.107 40.4727 156.772C41.0651 157.433 41.3613 158.324 41.3613 159.445C41.3613 160.566 41.0651 161.46 40.4727 162.125ZM36.4326 161.551C36.8519 162.061 37.4147 162.316 38.1211 162.316C38.8275 162.316 39.3903 162.061 39.8096 161.551C40.2334 161.04 40.4453 160.339 40.4453 159.445C40.4453 158.552 40.2334 157.85 39.8096 157.34C39.3903 156.829 38.8275 156.574 38.1211 156.574C37.4147 156.574 36.8519 156.829 36.4326 157.34C36.0133 157.85 35.8037 158.552 35.8037 159.445C35.8037 160.339 36.0133 161.04 36.4326 161.551ZM45.6816 163.123C44.6243 163.123 43.8154 162.765 43.2549 162.05C42.6989 161.334 42.4209 160.295 42.4209 158.933C42.4209 156.882 42.7012 155.421 43.2617 154.551C43.8268 153.676 44.793 153.22 46.1602 153.184C46.4792 153.184 46.7298 153.172 46.9121 153.149C47.6003 153.108 48.1221 153.001 48.4775 152.828V153.621C48.3682 153.703 48.1722 153.778 47.8896 153.847C47.6117 153.91 47.3018 153.951 46.96 153.97C46.7686 153.993 46.5133 154.004 46.1943 154.004C45.6748 154.018 45.2419 154.088 44.8955 154.216C44.5492 154.343 44.2598 154.553 44.0273 154.845C43.7949 155.132 43.6172 155.485 43.4941 155.904C43.3711 156.324 43.2731 156.854 43.2002 157.497H43.2412C43.4645 157.014 43.7995 156.643 44.2461 156.383C44.6927 156.118 45.2145 155.986 45.8115 155.986C46.764 155.986 47.5251 156.305 48.0947 156.943C48.6644 157.577 48.9492 158.429 48.9492 159.5C48.9492 160.612 48.6553 161.494 48.0674 162.146C47.484 162.797 46.6888 163.123 45.6816 163.123ZM43.9658 161.571C44.3805 162.068 44.9525 162.316 45.6816 162.316C46.4108 162.316 46.9827 162.068 47.3975 161.571C47.8122 161.07 48.0195 160.38 48.0195 159.5C48.0195 158.652 47.8122 157.989 47.3975 157.511C46.9827 157.028 46.4108 156.786 45.6816 156.786C44.9525 156.786 44.3805 157.028 43.9658 157.511C43.5511 157.989 43.3438 158.652 43.3438 159.5C43.3438 160.38 43.5511 161.07 43.9658 161.571ZM53.6182 155.774C54.5205 155.774 55.2497 156.112 55.8057 156.786C56.3662 157.456 56.6465 158.342 56.6465 159.445C56.6465 160.548 56.3685 161.437 55.8125 162.111C55.2611 162.781 54.5365 163.116 53.6387 163.116C53.0781 163.116 52.5814 162.973 52.1484 162.686C51.7201 162.394 51.4102 162.011 51.2188 161.537H51.1914V165.352H50.2891V155.891H51.1436V157.395H51.1709C51.3714 156.911 51.6882 156.522 52.1211 156.226C52.554 155.925 53.0531 155.774 53.6182 155.774ZM53.4609 162.316C54.1491 162.316 54.6982 162.057 55.1084 161.537C55.5186 161.013 55.7236 160.316 55.7236 159.445C55.7236 158.579 55.5163 157.884 55.1016 157.36C54.6914 156.836 54.1445 156.574 53.4609 156.574C52.7865 156.574 52.2396 156.841 51.8203 157.374C51.401 157.903 51.1914 158.593 51.1914 159.445C51.1914 160.302 51.401 160.995 51.8203 161.523C52.2396 162.052 52.7865 162.316 53.4609 162.316ZM60.249 162.337C60.8734 162.337 61.3997 162.143 61.8281 161.756C62.2565 161.368 62.4707 160.892 62.4707 160.327V159.541L60.3652 159.685C59.8047 159.721 59.374 159.858 59.0732 160.095C58.7725 160.327 58.6221 160.639 58.6221 161.031C58.6221 161.419 58.7725 161.733 59.0732 161.975C59.374 162.216 59.766 162.337 60.249 162.337ZM60.0645 163.116C59.3626 163.116 58.793 162.925 58.3555 162.542C57.9225 162.155 57.7061 161.651 57.7061 161.031C57.7061 160.421 57.9248 159.938 58.3623 159.582C58.8044 159.227 59.4355 159.021 60.2559 158.967L62.4707 158.83V158.215C62.4707 157.7 62.3158 157.299 62.0059 157.012C61.696 156.72 61.2653 156.574 60.7139 156.574C60.1943 156.574 59.7705 156.695 59.4424 156.937C59.1188 157.178 58.9183 157.515 58.8408 157.948H57.9658C58.016 157.301 58.2894 156.777 58.7861 156.376C59.2874 155.975 59.9368 155.774 60.7344 155.774C61.5456 155.774 62.1882 155.986 62.6621 156.41C63.1361 156.834 63.373 157.408 63.373 158.133V163H62.5117V161.646H62.4912C62.2952 162.089 61.974 162.444 61.5273 162.713C61.0807 162.982 60.5931 163.116 60.0645 163.116ZM74.8848 164.88H74.0371V163H65.0205V155.891H65.916V162.248H68.9307V155.891H69.8262V162.248H72.8408V155.891H73.7432V162.248H74.8848V164.88ZM78.7197 156.567C78.0863 156.567 77.5645 156.788 77.1543 157.23C76.7487 157.668 76.5277 158.24 76.4912 158.946H80.8799C80.8708 158.24 80.668 157.668 80.2715 157.23C79.875 156.788 79.3577 156.567 78.7197 156.567ZM80.8252 160.983H81.7207C81.6113 161.608 81.2878 162.12 80.75 162.521C80.2168 162.918 79.5628 163.116 78.7881 163.116C77.79 163.116 77.0016 162.79 76.4229 162.139C75.8441 161.482 75.5547 160.591 75.5547 159.466C75.5547 158.358 75.8441 157.467 76.4229 156.793C77.0016 156.114 77.7718 155.774 78.7334 155.774C79.6722 155.774 80.4196 156.093 80.9756 156.731C81.5316 157.369 81.8096 158.219 81.8096 159.281V159.664H76.4844V159.719C76.4844 160.521 76.694 161.157 77.1133 161.626C77.5326 162.091 78.0977 162.323 78.8086 162.323C79.3327 162.323 79.7747 162.2 80.1348 161.954C80.4948 161.708 80.7249 161.384 80.8252 160.983ZM87.9551 163V159.691H84.0449V163H83.1494V155.891H84.0449V158.939H87.9551V155.891H88.8506V163H87.9551ZM91.4414 163H90.5459V155.891H91.4414V161.605H91.4893L95.4473 155.891H96.3428V163H95.4473V157.285H95.4062L91.4414 163ZM100.424 159.575H102.017V156.643H100.424C99.9043 156.643 99.4919 156.777 99.1865 157.046C98.8812 157.315 98.7285 157.682 98.7285 158.146C98.7285 158.57 98.8835 158.914 99.1934 159.179C99.5033 159.443 99.9134 159.575 100.424 159.575ZM102.017 163V160.327H100.526L98.5781 163H97.5322L99.6035 160.177C99.0521 160.063 98.6191 159.828 98.3047 159.473C97.9902 159.117 97.833 158.68 97.833 158.16C97.833 157.463 98.0654 156.911 98.5303 156.506C98.9997 156.096 99.6286 155.891 100.417 155.891H102.912V163H102.017ZM109.324 159.274L113.057 163H111.867L108.408 159.534H108.367V163H107.472V155.891H108.367V159.083H108.408L111.778 155.891H112.92L109.324 159.274ZM121.813 162.248V156.643H118.751C118.737 156.866 118.699 157.426 118.635 158.324C118.571 159.217 118.53 159.753 118.512 159.931C118.425 161.029 118.213 161.785 117.876 162.2V162.248H121.813ZM117.083 164.88H116.235V162.248H116.81C117.279 161.943 117.566 161.161 117.671 159.903C117.794 158.404 117.887 157.066 117.951 155.891H122.716V162.248H123.864V164.88H123.01V163H117.083V164.88ZM130.119 162.125C129.527 162.786 128.743 163.116 127.768 163.116C126.792 163.116 126.008 162.786 125.416 162.125C124.824 161.46 124.527 160.566 124.527 159.445C124.527 158.324 124.824 157.433 125.416 156.772C126.013 156.107 126.797 155.774 127.768 155.774C128.743 155.774 129.527 156.107 130.119 156.772C130.712 157.433 131.008 158.324 131.008 159.445C131.008 160.566 130.712 161.46 130.119 162.125ZM126.079 161.551C126.498 162.061 127.061 162.316 127.768 162.316C128.474 162.316 129.037 162.061 129.456 161.551C129.88 161.04 130.092 160.339 130.092 159.445C130.092 158.552 129.88 157.85 129.456 157.34C129.037 156.829 128.474 156.574 127.768 156.574C127.061 156.574 126.498 156.829 126.079 157.34C125.66 157.85 125.45 158.552 125.45 159.445C125.45 160.339 125.66 161.04 126.079 161.551ZM134.193 159.274L137.926 163H136.736L133.277 159.534H133.236V163H132.341V155.891H133.236V159.083H133.277L136.647 155.891H137.789L134.193 159.274ZM143.914 155.891V156.643H141.494V163H140.599V156.643H138.179V155.891H143.914ZM150.053 162.125C149.46 162.786 148.676 163.116 147.701 163.116C146.726 163.116 145.942 162.786 145.35 162.125C144.757 161.46 144.461 160.566 144.461 159.445C144.461 158.324 144.757 157.433 145.35 156.772C145.947 156.107 146.73 155.774 147.701 155.774C148.676 155.774 149.46 156.107 150.053 156.772C150.645 157.433 150.941 158.324 150.941 159.445C150.941 160.566 150.645 161.46 150.053 162.125ZM146.013 161.551C146.432 162.061 146.995 162.316 147.701 162.316C148.408 162.316 148.97 162.061 149.39 161.551C149.813 161.04 150.025 160.339 150.025 159.445C150.025 158.552 149.813 157.85 149.39 157.34C148.97 156.829 148.408 156.574 147.701 156.574C146.995 156.574 146.432 156.829 146.013 157.34C145.593 157.85 145.384 158.552 145.384 159.445C145.384 160.339 145.593 161.04 146.013 161.551ZM155.61 155.774C156.513 155.774 157.242 156.112 157.798 156.786C158.358 157.456 158.639 158.342 158.639 159.445C158.639 160.548 158.361 161.437 157.805 162.111C157.253 162.781 156.529 163.116 155.631 163.116C155.07 163.116 154.574 162.973 154.141 162.686C153.712 162.394 153.402 162.011 153.211 161.537H153.184V165.352H152.281V155.891H153.136V157.395H153.163C153.364 156.911 153.68 156.522 154.113 156.226C154.546 155.925 155.045 155.774 155.61 155.774ZM155.453 162.316C156.141 162.316 156.69 162.057 157.101 161.537C157.511 161.013 157.716 160.316 157.716 159.445C157.716 158.579 157.508 157.884 157.094 157.36C156.684 156.836 156.137 156.574 155.453 156.574C154.779 156.574 154.232 156.841 153.812 157.374C153.393 157.903 153.184 158.593 153.184 159.445C153.184 160.302 153.393 160.995 153.812 161.523C154.232 162.052 154.779 162.316 155.453 162.316ZM160.313 165.57C160.149 165.57 159.999 165.557 159.862 165.529V164.757C159.972 164.784 160.115 164.798 160.293 164.798C160.617 164.798 160.876 164.707 161.072 164.524C161.273 164.342 161.453 164.028 161.612 163.581L161.804 163.048L159.138 155.891H160.108L162.269 162.098H162.289L164.456 155.891H165.406L162.61 163.431C162.3 164.265 161.986 164.83 161.667 165.126C161.348 165.422 160.897 165.57 160.313 165.57ZM86.123 173.027C86.123 172.139 86.4421 171.405 87.0801 170.826C87.7227 170.243 88.5339 169.951 89.5137 169.951C90.4525 169.951 91.234 170.215 91.8584 170.744C92.4827 171.273 92.7949 171.929 92.7949 172.713C92.7949 173.264 92.6423 173.788 92.3369 174.285C92.0316 174.777 91.4984 175.413 90.7373 176.192L88.2695 178.674V178.708H92.9521V180H86.2051V178.961L89.7666 175.331C90.3682 174.702 90.7715 174.219 90.9766 173.882C91.1816 173.54 91.2842 173.175 91.2842 172.788C91.2842 172.351 91.1087 171.979 90.7578 171.674C90.4069 171.368 89.9762 171.216 89.4658 171.216C88.9281 171.216 88.4769 171.389 88.1123 171.735C87.7523 172.077 87.5723 172.506 87.5723 173.021V173.041H86.123V173.027ZM98.7148 180V178.052H93.7793V176.712C94.5723 175.217 95.9691 173.025 97.9697 170.136H100.185V176.767H101.538V178.052H100.185V180H98.7148ZM95.208 176.753V176.787H98.7285V171.318H98.7012C97.0697 173.674 95.9053 175.486 95.208 176.753ZM103.268 182.105H101.955L105.455 170.136H106.768L103.268 182.105ZM108.08 180L112.462 171.462V171.428H107.26V170.136H113.973V171.462L109.687 180H108.08Z" fill="#0D1C41"/>
</g>
<defs>
<filter id="filter0_d" x="0" y="10" width="201" height="226" filterUnits="userSpaceOnUse" color-interpolation-filters="sRGB">
<feFlood flood-opacity="0" result="BackgroundImageFix"/>
<feColorMatrix in="SourceAlpha" type="matrix" values="0 0 0 0 0 0 0 0 0 0 0 0 0 0 0 0 0 0 127 0" result="hardAlpha"/>
<feOffset dy="2"/>
<feGaussianBlur stdDeviation="9"/>
<feColorMatrix type="matrix" values="0 0 0 0 0.160784 0 0 0 0 0.160784 0 0 0 0 0.160784 0 0 0 0.1 0"/>
<feBlend mode="normal" in2="BackgroundImageFix" result="effect1_dropShadow"/>
<feBlend mode="normal" in="SourceGraphic" in2="effect1_dropShadow" result="shape"/>
</filter>
<clipPath id="clip0">
<rect width="69" height="69" fill="white" transform="translate(66 60)"/>
</clipPath>
</defs>
</svg>
